<svg xmlns="http://www.w3.org/2000/svg" viewBox="0 0 28.56 28.02">
    <path class="cls-1" d="M11.64,12.24a.49.49,0,0,0,.54-.78L6.84,6.12A4,4,0,0,1,5.58,3.3C5.58,1.5,7.32.24,9.24.24c2.22,0,3,1.38,3.42,3.48l1.08,6.66a.5.5,0,0,0,.48.36c.18,0,.3-.06.42-.3l5.1-8.34c.9-1.44,1.8-2,2.82-2.1a3.07,3.07,0,0,1,3.12,2.76c0,.84-.6,1.62-1.68,2.52l-8.52,6.48a.52.52,0,0,0-.18.36.38.38,0,0,0,.42.42l9.9,1.8a3.24,3.24,0,0,1,2.94,3.24A3.45,3.45,0,0,1,25,21.12c-1.2,0-2.16-1-3.84-2.22l-5.94-4.68c-.3-.24-.78-.24-.84.36l-.18,9.24C14,26,13.2,28,11,28s-3.48-2-2.58-4.26l4.2-9.66a.47.47,0,0,0-.6-.66L3.78,16.26C1.44,17,0,15.84,0,13.62c0-2.7,2-3.84,5.22-2.94Z" />
</svg>
