<svg xmlns="http://www.w3.org/2000/svg" viewBox="0 0 52.8 52.03">
    <path class="cls-1" d="M38.72,32.23c1.43-2.86,1.54-5.61-2-9.35l-3.3-3.52c-3.3-3.52-4.62-7.15-4.62-9.13C28.82,4.73,32.56,0,41.25,0c8,0,11.55,5.94,11.55,11.11,0,4.18-.88,7.7-4.18,13.42L39.05,41.47C35.2,48.29,31.68,52,26.4,52s-8.8-3.74-12.65-10.56L4.18,24.53C.88,18.81,0,15.29,0,11.11,0,5.94,3.52,0,11.55,0,20.24,0,24,4.73,24,10.23c0,2-1.32,5.61-4.62,9.13l-3.3,3.52c-3.52,3.74-3.41,6.49-2,9.35,1.65,3.19,4.84,4.07,12.32,4.07S37.07,35.42,38.72,32.23Z" />
</svg>
